:FULLY-SPECIFIED
:FORCE-ALL-JOINTS-BE-3DOF
:DEGREES
33
root 7.98311 15.7344 -32.174 7.57105 -8.15693 -7.24251
lfemur -40.628 4.84754 -8.67792
ltibia 22.996 0 0
lfoot -11.0652 11.6482 0
ltoes -12.3629 0 0
rfemur 18.7023 6.83398 30.6632
rtibia 0.598902 0 0
rfoot -11.3384 -0.774067 0
rtoes -33.2573 0 0
lowerback -8.30104 1.56461 3.95248
upperback -0.993933 1.57389 3.56748
thorax 3.63191 0.812986 1.65876
lowerneck -20.6194 -4.51028 -11.8067
upperneck 16.3246 -5.79111 14.7404
head 9.35201 -1.90106 6.31901
lclavicle 2.83177e-14 1.16525e-14 0
lhumerus -42.9856 -8.27248 90.9869
lradius 25.9066 0 0
lwrist 2.94198 0 0
lhand -11.3046 -26.5406 0
lfingers 7.12502 0 0
lthumb 14.7263 2.90673 0
rclavicle 2.83177e-14 1.16525e-14 0
rhumerus -44.0629 20.7102 -93.0111
rradius 60.6582 0 0
rwrist -29.9574 0 0
rhand -30.1052 -30.8577 0
rfingers 7.12502 0 0
rthumb -3.4191 -60.8104 0
34
root 8.01139 15.7416 -32.0233 7.5338 -8.3758 -7.13391
lfemur -40.4018 4.90421 -8.87751
ltibia 22.9502 0 0
lfoot -10.9887 11.6066 0
ltoes -12.1891 0 0
rfemur 18.699 6.70796 30.3513
rtibia 1.40849 0 0
rfoot -11.0342 -0.967871 0
rtoes -33.0621 0 0
lowerback -8.2891 1.56523 3.86537
upperback -1.01245 1.58082 3.55897
thorax 3.6042 0.816732 1.69873
lowerneck -20.6896 -4.49175 -11.7818
upperneck 16.3831 -5.75724 14.6754
head 9.37605 -1.88735 6.2981
lclavicle 2.85563e-14 1.13434e-14 0
lhumerus -43.0399 -8.25102 90.9976
lradius 25.7589 0 0
lwrist 2.72279 0 0
lhand -10.9757 -26.3878 0
lfingers 7.12502 0 0
lthumb 15.0423 3.02496 0
rclavicle 2.85563e-14 1.13434e-14 0
rhumerus -44.1088 20.6049 -93.0966
rradius 60.245 0 0
rwrist -29.7515 0 0
rhand -30.0497 -30.8223 0
rfingers 7.12502 0 0
rthumb -3.36549 -60.776 0
35
root 8.0414 15.7505 -31.871 7.49119 -8.59548 -6.99969
lfemur -40.1587 4.97828 -9.1283
ltibia 22.9798 0 0
lfoot -10.9094 11.5475 0
ltoes -11.9925 0 0
rfemur 18.6113 6.55507 29.9942
rtibia 2.41494 0 0
rfoot -10.6291 -1.18343 0
rtoes -32.7107 0 0
lowerback -8.26028 1.56247 3.75717
upperback -1.03646 1.58556 3.54558
thorax 3.56088 0.819409 1.7449
lowerneck -20.7632 -4.4726 -11.758
upperneck 16.4386 -5.72144 14.6104
head 9.39951 -1.87277 6.27758
lclavicle 2.87691e-14 1.10027e-14 0
lhumerus -43.0881 -8.19857 90.9932
lradius 25.5884 0 0
lwrist 2.48219 0 0
lhand -10.5992 -26.1969 0
lfingers 7.12502 0 0
lthumb 15.4039 3.17602 0
rclavicle 2.87691e-14 1.10027e-14 0
rhumerus -44.1416 20.4743 -93.1644
rradius 59.7593 0 0
rwrist -29.5112 0 0
rhand -29.9979 -30.7662 0
rfingers 7.12502 0 0
rthumb -3.31554 -60.721 0
36
root 8.07302 15.7613 -31.7171 7.44353 -8.81524 -6.84149
lfemur -39.8991 5.06829 -9.42702
ltibia 23.0797 0 0
lfoot -10.8281 11.4721 0
ltoes -11.7744 0 0
rfemur 18.4432 6.37734 29.5953
rtibia 3.60445 0 0
rfoot -10.1314 -1.4192 0
rtoes -32.2139 0 0
lowerback -8.21572 1.55644 3.62923
upperback -1.0655 1.5881 3.52764
thorax 3.50311 0.821007 1.79689
lowerneck -20.8399 -4.45293 -11.7352
upperneck 16.4912 -5.68392 14.5454
head 9.42241 -1.85742 6.25747
lclavicle 2.8956e-14 1.06331e-14 0
lhumerus -43.1297 -8.11777 90.9746
lradius 25.3974 0 0
lwrist 2.22236 0 0
lhand -10.1795 -25.9709 0
lfingers 7.12502 0 0
lthumb 15.807 3.3574 0
rclavicle 2.8956e-14 1.06331e-14 0
rhumerus -44.1621 20.32 -93.2155
rradius 59.2064 0 0
rwrist -29.2391 0 0
rhand -29.9498 -30.6907 0
rfingers 7.12502 0 0
rthumb -3.26908 -60.6464 0
37
root 8.10611 15.7736 -31.5618 7.39111 -9.03434 -6.66096
lfemur -39.6234 5.17276 -9.77038
ltibia 23.2447 0 0
lfoot -10.7452 11.3816 0
ltoes -11.5364 0 0
rfemur 18.1989 6.17682 29.1579
rtibia 4.9632 0 0
rfoot -9.54909 -1.67365 0
rtoes -31.5826 0 0
lowerback -8.15657 1.54725 3.4829
upperback -1.09913 1.58845 3.50548
thorax 3.43204 0.82152 1.8543
lowerneck -20.9193 -4.43283 -11.7136
upperneck 16.5413 -5.64487 14.4804
head 9.4448 -1.84139 6.23774
lclavicle 2.91167e-14 1.02376e-14 0
lhumerus -43.164 -8.01124 90.9428
lradius 25.188 0 0
lwrist 1.9455 0 0
lhand -9.72075 -25.7129 0
lfingers 7.12502 0 0
lthumb 16.2477 3.5666 0
rclavicle 2.91167e-14 1.02376e-14 0
rhumerus -44.171 20.1438 -93.2504
rradius 58.5915 0 0
rwrist -28.9378 0 0
rhand -29.9052 -30.5969 0
rfingers 7.12502 0 0
rthumb -3.22596 -60.5534 0
38
root 8.14053 15.7874 -31.4054 7.33424 -9.25204 -6.45973
lfemur -39.3322 5.29022 -10.1551
ltibia 23.4697 0 0
lfoot -10.6616 11.2771 0
ltoes -11.2801 0 0
rfemur 17.8822 5.95555 28.6854
rtibia 6.47737 0 0
rfoot -8.89045 -1.94525 0
rtoes -30.8279 0 0
lowerback -8.08398 1.53501 3.31953
upperback -1.13689 1.5866 3.47943
thorax 3.34884 0.820939 1.91673
lowerneck -21.0009 -4.41241 -11.6932
upperneck 16.589 -5.60448 14.4155
head 9.46668 -1.82481 6.21839
lclavicle 2.92511e-14 9.81881e-15 0
lhumerus -43.1906 -7.88163 90.8985
lradius 24.9626 0 0
lwrist 1.6538 0 0
lhand -9.22706 -25.4256 0
lfingers 7.12502 0 0
lthumb 16.7219 3.80111 0
rclavicle 2.92511e-14 9.81881e-15 0
rhumerus -44.1692 19.9473 -93.2701
rradius 57.9198 0 0
rwrist -28.6099 0 0
rhand -29.8638 -30.486 0
rfingers 7.12502 0 0
rthumb -3.186 -60.4432 0
39
root 8.17615 15.8026 -31.2479 7.2732 -9.46761 -6.23945
lfemur -39.0258 5.41921 -10.5778
ltibia 23.7495 0 0
lfoot -10.5777 11.1598 0
ltoes -11.007 0 0
rfemur 17.4972 5.71557 28.1812
rtibia 8.13315 0 0
rfoot -8.16359 -2.23246 0
rtoes -29.9604 0 0
lowerback -7.9991 1.51982 3.14048
upperback -1.17833 1.58254 3.44981
thorax 3.25466 0.819256 1.9838
lowerneck -21.0844 -4.39177 -11.674
upperneck 16.6345 -5.56295 14.3507
head 9.4881 -1.80776 6.19941
lclavicle 2.93589e-14 9.37961e-15 0
lhumerus -43.209 -7.73155 90.8428
lradius 24.7233 0 0
lwrist 1.34946 0 0
lhand -8.70266 -25.1121 0
lfingers 7.12502 0 0
lthumb 17.2256 4.05843 0
rclavicle 2.93589e-14 9.37961e-15 0
rhumerus -44.1574 19.7323 -93.2754
rradius 57.1965 0 0
rwrist -28.2578 0 0
rhand -29.8255 -30.3592 0
rfingers 7.12502 0 0
rthumb -3.14903 -60.3171 0
40
root 8.21284 15.819 -31.0895 7.20831 -9.68033 -6.00176
lfemur -38.7048 5.55825 -11.0354
ltibia 24.0789 0 0
lfoot -10.4944 11.0308 0
ltoes -10.7186 0 0
rfemur 17.0479 5.45891 27.6487
rtibia 9.91672 0 0
rfoot -7.37665 -2.53375 0
rtoes -28.9912 0 0
lowerback -7.90307 1.50179 2.94709
upperback -1.22301 1.57628 3.41694
thorax 3.15066 0.816462 2.05511
lowerneck -21.1695 -4.37101 -11.656
upperneck 16.678 -5.52047 14.286
head 9.50909 -1.79034 6.1808
lclavicle 2.94401e-14 8.92281e-15 0
lhumerus -43.2186 -7.56363 90.7765
lradius 24.4723 0 0
lwrist 1.03467 0 0
lhand -8.15174 -24.7754 0
lfingers 7.12502 0 0
lthumb 17.7548 4.33604 0
rclavicle 2.94401e-14 8.92281e-15 0
rhumerus -44.1363 19.5006 -93.267
rradius 56.4267 0 0
rwrist -27.8843 0 0
rhand -29.7902 -30.2176 0
rfingers 7.12502 0 0
rthumb -3.11489 -60.1761 0
41
root 8.25046 15.8366 -30.9304 7.13984 -9.88945 -5.74829
lfemur -38.3695 5.70588 -11.5244
ltibia 24.4527 0 0
lfoot -10.4122 10.8913 0
ltoes -10.4165 0 0
rfemur 16.5383 5.18762 27.0913
rtibia 11.8143 0 0
rfoot -6.53779 -2.84758 0
rtoes -27.9311 0 0
lowerback -7.79705 1.48104 2.74072
upperback -1.27046 1.56782 3.38117
thorax 3.038 0.812549 2.13027
lowerneck -21.2556 -4.35024 -11.6394
upperneck 16.7197 -5.47724 14.2215
head 9.52967 -1.77267 6.16254
lclavicle 2.94943e-14 8.45118e-15 0
lhumerus -43.2189 -7.38051 90.7005
lradius 24.212 0 0
lwrist 0.711623 0 0
lhand -7.57849 -24.4184 0
lfingers 7.12502 0 0
lthumb 18.3053 4.63144 0
rclavicle 2.94943e-14 8.45118e-15 0
rhumerus -44.1069 19.2537 -93.2457
rradius 55.6159 0 0
rwrist -27.4919 0 0
rhand -29.7576 -30.0625 0
rfingers 7.12502 0 0
rthumb -3.08341 -60.0215 0
42
root 8.28887 15.8551 -30.7707 7.06812 -10.0942 -5.48069
lfemur -38.0203 5.86062 -12.0416
ltibia 24.8659 0 0
lfoot -10.3318 10.7425 0
ltoes -10.1021 0 0
rfemur 15.9725 4.90373 26.5123
rtibia 13.812 0 0
rfoot -5.65514 -3.17242 0
rtoes -26.791 0 0
lowerback -7.68219 1.45767 2.52273
upperback -1.32025 1.55714 3.34281
thorax 2.91783 0.807509 2.20889
lowerneck -21.3425 -4.32955 -11.6242
upperneck 16.7599 -5.43346 14.1571
head 9.54987 -1.75484 6.14463
lclavicle 2.95215e-14 7.96755e-15 0
lhumerus -43.2094 -7.18482 90.6158
lradius 23.9445 0 0
lwrist 0.38252 0 0
lhand -6.98709 -24.0441 0
lfingers 7.12502 0 0
lthumb 18.8734 4.94213 0
rclavicle 2.95215e-14 7.96755e-15 0
rhumerus -44.0699 18.9935 -93.2124
rradius 54.769 0 0
rwrist -27.0831 0 0
rhand -29.7275 -29.8951 0
rfingers 7.12502 0 0
rthumb -3.05442 -59.8545 0
43
root 8.32795 15.8744 -30.6106 6.99342 -10.294 -5.20061
lfemur -37.6579 6.02101 -12.5837
ltibia 25.3131 0 0
lfoot -10.2538 10.5855 0
ltoes -9.77704 0 0
rfemur 15.3544 4.60929 25.9151
rtibia 15.896 0 0
rfoot -4.73687 -3.50673 0
rtoes -25.5819 0 0
lowerback -7.55962 1.43179 2.29446
upperback -1.37192 1.54426 3.30219
thorax 2.79131 0.801335 2.29057
lowerneck -21.4297 -4.30905 -11.6104
upperneck 16.7987 -5.38932 14.093
head 9.56971 -1.73695 6.12707
lclavicle 2.95214e-14 7.47471e-15 0
lhumerus -43.1895 -6.97919 90.5233
lradius 23.6721 0 0
lwrist 0.0495504 0 0
lhand -6.38175 -23.6554 0
lfingers 7.12502 0 0
lthumb 19.4548 5.26559 0
rclavicle 2.95214e-14 7.47471e-15 0
rhumerus -44.026 18.7216 -93.1678
rradius 53.8914 0 0
rwrist -26.6606 0 0
rhand -29.6999 -29.7164 0
rfingers 7.12502 0 0
rthumb -3.02775 -59.6762 0
44
root 8.36756 15.8945 -30.4502 6.91606 -10.4879 -4.90968
lfemur -37.2825 6.18557 -13.1474
ltibia 25.7893 0 0
lfoot -10.1789 10.4216 0
ltoes -9.44279 0 0
rfemur 14.688 4.30632 25.3032
rtibia 18.0526 0 0
rfoot -3.79112 -3.84897 0
rtoes -24.3145 0 0
lowerback -7.4305 1.40351 2.05728
upperback -1.42501 1.52916 3.25965
thorax 2.6596 0.794017 2.37493
lowerneck -21.5168 -4.28884 -11.598
upperneck 16.8364 -5.34502 14.0291
head 9.58924 -1.71911 6.10983
lclavicle 2.94938e-14 6.97546e-15 0
lhumerus -43.1588 -6.76623 90.4238
lradius 23.3969 0 0
lwrist -0.28509 0 0
lhand -5.76663 -23.2552 0
lfingers 7.12502 0 0
lthumb 20.0455 5.59933 0
rclavicle 2.94938e-14 6.97546e-15 0
rhumerus -43.9761 18.4399 -93.1127
rradius 52.9883 0 0
rwrist -26.227 0 0
rhand -29.6746 -29.5277 0
rfingers 7.12502 0 0
rthumb -3.00324 -59.4878 0
45
root 8.40757 15.9152 -30.2897 6.83633 -10.6753 -4.60954
lfemur -36.8946 6.35283 -13.7294
ltibia 26.2893 0 0
lfoot -10.1078 10.2518 0
ltoes -9.1009 0 0
rfemur 13.9774 3.99688 24.6798
rtibia 20.268 0 0
rfoot -2.82604 -4.19762 0
rtoes -22.9998 0 0
lowerback -7.29598 1.37293 1.81252
upperback -1.47909 1.51184 3.2155
thorax 2.52386 0.785547 2.46156
lowerneck -21.6035 -4.26903 -11.5871
upperneck 16.8731 -5.30075 13.9654
head 9.60848 -1.70142 6.09292
lclavicle 2.94386e-14 6.47261e-15 0
lhumerus -43.1166 -6.5486 90.3183
lradius 23.1213 0 0
lwrist -0.619208 0 0
lhand -5.14594 -22.8467 0
lfingers 7.12502 0 0
lthumb 20.6417 5.94083 0
rclavicle 2.94386e-14 6.47261e-15 0
rhumerus -43.9209 18.1499 -93.0479
rradius 52.0648 0 0
rwrist -25.7847 0 0
rhand -29.6512 -29.3301 0
rfingers 7.12502 0 0
rthumb -2.98073 -59.2906 0
